<svg width="65" height="26" viewBox="0 0 65 26" fill="none" xmlns="http://www.w3.org/2000/svg">
<path d="M63.9167 10.8333H61.555C60.5248 4.69517 55.2175 0 48.828 0C42.5208 0 37.2407 4.46225 36.0176 10.3773C34.9657 9.49542 33.7653 9.02742 32.5 9.02742C31.2358 9.02742 30.0365 9.49542 28.9846 10.3762C27.7756 4.46117 22.5604 0 16.328 0C9.48567 0 3.86208 5.25525 3.30525 11.9167H1.08333C0.796015 11.9167 0.520465 12.0308 0.317301 12.234C0.114137 12.4371 0 12.7127 0 13C0 13.2873 0.114137 13.5629 0.317301 13.766C0.520465 13.9692 0.796015 14.0833 1.08333 14.0833H3.30525C3.86208 20.7448 9.48567 26 16.328 26C23.3339 26 29.042 20.3591 29.2316 13.3564C30.1557 11.9643 31.3062 11.1941 32.5 11.1941C33.6938 11.1941 34.8443 11.9654 35.7684 13.3564C35.9612 20.3591 41.7387 26 48.828 26C55.9531 26 61.75 20.1684 61.75 13H63.9167C64.204 13 64.4795 12.8859 64.6827 12.6827C64.8859 12.4795 65 12.204 65 11.9167C65 11.6293 64.8859 11.3538 64.6827 11.1506C64.4795 10.9475 64.204 10.8333 63.9167 10.8333ZM16.328 23.8333C10.3122 23.8333 5.41667 18.9735 5.41667 13C5.41667 7.0265 10.3122 2.16667 16.328 2.16667C22.36 2.16667 27.0833 6.92575 27.0833 13C27.0833 19.0743 22.36 23.8333 16.328 23.8333ZM48.828 23.8333C42.8123 23.8333 37.9167 18.9735 37.9167 13C37.9167 7.0265 42.8123 2.16667 48.828 2.16667C54.86 2.16667 59.5833 6.92575 59.5833 13C59.5833 19.0743 54.86 23.8333 48.828 23.8333Z" fill="white"/>
</svg>
