<svg width="283" height="72" viewBox="0 0 283 72" fill="none" xmlns="http://www.w3.org/2000/svg">
<path d="M13.056 19.016V53H2.4V19.016H13.056ZM36.8288 25.736C39.9328 25.736 42.3488 26.776 44.0768 28.856C45.8368 30.936 46.7168 33.752 46.7168 37.304V53H36.1088V38.648C36.1088 37.368 35.7568 36.36 35.0528 35.624C34.3808 34.856 33.4688 34.472 32.3168 34.472C31.1328 34.472 30.2048 34.856 29.5328 35.624C28.8608 36.36 28.5248 37.368 28.5248 38.648V53H17.8688V25.928H28.5248V30.056C29.3568 28.776 30.4608 27.736 31.8368 26.936C33.2448 26.136 34.9088 25.736 36.8288 25.736ZM68.1855 43.928V53H64.1535C56.7295 53 53.0175 49.304 53.0175 41.912V34.808H49.6575V25.928H53.0175V19.4H63.6735V25.928H68.0895V34.808H63.6735V42.104C63.6735 42.744 63.8175 43.208 64.1055 43.496C64.4255 43.784 64.9375 43.928 65.6415 43.928H68.1855ZM98.4518 39.224C98.4518 39.96 98.4038 40.664 98.3078 41.336H81.1718C81.3318 43.672 82.3078 44.84 84.0998 44.84C85.2518 44.84 86.0838 44.312 86.5958 43.256H97.8758C97.4918 45.176 96.6758 46.904 95.4278 48.44C94.2118 49.944 92.6598 51.144 90.7718 52.04C88.9158 52.904 86.8678 53.336 84.6278 53.336C81.9398 53.336 79.5398 52.776 77.4278 51.656C75.3478 50.536 73.7158 48.936 72.5318 46.856C71.3798 44.744 70.8038 42.28 70.8038 39.464C70.8038 36.648 71.3798 34.2 72.5318 32.12C73.7158 30.008 75.3478 28.392 77.4278 27.272C79.5398 26.152 81.9398 25.592 84.6278 25.592C87.3158 25.592 89.6998 26.152 91.7798 27.272C93.8918 28.36 95.5238 29.928 96.6758 31.976C97.8598 34.024 98.4518 36.44 98.4518 39.224ZM87.6518 36.68C87.6518 35.784 87.3638 35.112 86.7878 34.664C86.2118 34.184 85.4918 33.944 84.6278 33.944C82.7398 33.944 81.6358 34.856 81.3158 36.68H87.6518ZM112.478 30.92C113.566 29.352 114.894 28.104 116.462 27.176C118.03 26.216 119.662 25.736 121.358 25.736V37.112H118.334C116.318 37.112 114.83 37.464 113.87 38.168C112.942 38.872 112.478 40.12 112.478 41.912V53H101.822V25.928H112.478V30.92ZM143.188 25.736C146.292 25.736 148.708 26.776 150.436 28.856C152.196 30.936 153.076 33.752 153.076 37.304V53H142.468V38.648C142.468 37.368 142.116 36.36 141.412 35.624C140.74 34.856 139.828 34.472 138.676 34.472C137.492 34.472 136.564 34.856 135.892 35.624C135.22 36.36 134.884 37.368 134.884 38.648V53H124.228V25.928H134.884V30.056C135.716 28.776 136.82 27.736 138.196 26.936C139.604 26.136 141.268 25.736 143.188 25.736ZM176.657 25.736C179.761 25.736 182.177 26.776 183.905 28.856C185.665 30.936 186.545 33.752 186.545 37.304V53H175.937V38.648C175.937 37.368 175.585 36.36 174.881 35.624C174.209 34.856 173.297 34.472 172.145 34.472C170.961 34.472 170.033 34.856 169.361 35.624C168.689 36.36 168.353 37.368 168.353 38.648V53H157.697V25.928H168.353V30.056C169.185 28.776 170.289 27.736 171.665 26.936C173.073 26.136 174.737 25.736 176.657 25.736Z" fill="#145DA0"/>
<path d="M269.728 53L263.056 42.2V53H252.4V17.48H263.056V36.056L269.824 25.928H282.208L272.08 39.56L282.448 53H269.728Z" fill="#145DA0"/>
<path d="M250.917 37.8333H248.555C247.525 31.6952 242.218 27 235.828 27C229.521 27 224.241 31.4623 223.018 37.3773C221.966 36.4954 220.765 36.0274 219.5 36.0274C218.236 36.0274 217.037 36.4954 215.985 37.3762C214.776 31.4612 209.56 27 203.328 27C196.486 27 190.862 32.2553 190.305 38.9167H188.083C187.796 38.9167 187.52 39.0308 187.317 39.234C187.114 39.4371 187 39.7127 187 40C187 40.2873 187.114 40.5629 187.317 40.766C187.52 40.9692 187.796 41.0833 188.083 41.0833H190.305C190.862 47.7448 196.486 53 203.328 53C210.334 53 216.042 47.3591 216.232 40.3564C217.156 38.9643 218.306 38.1941 219.5 38.1941C220.694 38.1941 221.844 38.9654 222.768 40.3564C222.961 47.3591 228.739 53 235.828 53C242.953 53 248.75 47.1684 248.75 40H250.917C251.204 40 251.48 39.8859 251.683 39.6827C251.886 39.4795 252 39.204 252 38.9167C252 38.6293 251.886 38.3538 251.683 38.1506C251.48 37.9475 251.204 37.8333 250.917 37.8333ZM203.328 50.8333C197.312 50.8333 192.417 45.9735 192.417 40C192.417 34.0265 197.312 29.1667 203.328 29.1667C209.36 29.1667 214.083 33.9258 214.083 40C214.083 46.0743 209.36 50.8333 203.328 50.8333ZM235.828 50.8333C229.812 50.8333 224.917 45.9735 224.917 40C224.917 34.0265 229.812 29.1667 235.828 29.1667C241.86 29.1667 246.583 33.9258 246.583 40C246.583 46.0743 241.86 50.8333 235.828 50.8333Z" fill="#145DA0"/>
</svg>
